<svg id="Layer_1" data-name="Layer 1" xmlns="http://www.w3.org/2000/svg" viewBox="0 0 1133.86 1133.86"><defs><style>.cls-1{fill:#fff;}.cls-2{fill:#7b58a5;}</style></defs><path class="cls-1" d="M769.77,352.42c-28.65-42.3-96.85-61.31-139-97.33,30.94,50.82,60.87,102.37,88.57,155,26.87,51,4.4,115.8-46.51,143.36-49.7,26.9-106.34,8.87-136.91-44C485,421.43,432.9,334,384.45,244.59c-12.79-23.59-23.32-55.3-18.37-80,4.64-23.07,15.56-44.88,27.47-67.65a26.64,26.64,0,0,0-23.37-39L141.73,56a26.64,26.64,0,0,0-23.3,40c141,244.15,281.67,487.88,424.49,735.26a26.66,26.66,0,0,0,46.16,0C654.31,718.43,717.85,608.76,780.8,499.49,780.9,499.08,804.13,403.14,769.77,352.42Z"/><path class="cls-2" d="M792.48,479.22s21.06-87.27-11.28-135C748.42,295.8,660.5,279.89,628.84,228c-28.05-46-23.32-89.55-6.64-115.52C651.36,67.08,692.33,50,744.62,50.58c81,.89,162.12.5,246.5.35a27.83,27.83,0,0,1,24.15,41.74c-19.52,33.84-38,65.86-58,100.39-1.6,2.77-4.39,4.69-8,6.1-18.84,7.34-38.55-8.67-36.82-28.81,2.1-24.49-4.28-45.26-22.2-63.76-27.22-28.09-70.59-32.29-100.41-10-29,21.7-36.25,57.67-17.3,93,15.86,29.57,33.5,58.17,50,87.41,28.05,49.81,28.55,100.24.13,149.72"/><circle class="cls-1" cx="835.95" cy="155.13" r="47.38"/><path class="cls-1" d="M129.34,1064V940.75q0-9.6,4.61-14.41a15.84,15.84,0,0,1,11.94-4.8,16.42,16.42,0,0,1,12.22,4.75q4.66,4.76,4.67,14.46V1064q0,9.7-4.67,14.51a16.3,16.3,0,0,1-12.22,4.8,15.75,15.75,0,0,1-11.88-4.86Q129.33,1073.59,129.34,1064Z"/><path class="cls-1" d="M226,975.28V979q8.1-10.69,17.73-15.71a47.27,47.27,0,0,1,22.13-5,44.15,44.15,0,0,1,21.74,5.29,33.61,33.61,0,0,1,14.3,15,35.6,35.6,0,0,1,3.94,12.16,126,126,0,0,1,.91,16.67v57.21q0,9.24-4.23,14a14,14,0,0,1-11,4.73,14.2,14.2,0,0,1-11.15-4.84q-4.28-4.85-4.28-13.86v-51.24q0-15.21-4.22-23.26T255,982a24.92,24.92,0,0,0-15,4.9,28.18,28.18,0,0,0-9.91,13.46q-2.25,6.87-2.25,25.68v38.51q0,9.36-4.34,14a14.57,14.57,0,0,1-11.2,4.68,14,14,0,0,1-10.93-4.84q-4.28-4.85-4.28-13.86V975.73q0-8.78,3.83-13.12t10.48-4.33a14.28,14.28,0,0,1,7.32,1.91,13.77,13.77,0,0,1,5.23,5.75A20.15,20.15,0,0,1,226,975.28Z"/><path class="cls-1" d="M334.87,961h7.32v-9.23q0-14.41,3.66-22.92a23.26,23.26,0,0,1,12.39-12.39q8.73-3.88,23.93-3.89,26.91,0,26.92,13.18a10.38,10.38,0,0,1-2.82,7.32,8.75,8.75,0,0,1-6.64,3,47.21,47.21,0,0,1-6.2-.67,50.19,50.19,0,0,0-7.43-.68q-8.34,0-10.7,4.9t-2.36,14V961h7.54q17.58,0,17.57,10.59,0,7.54-4.67,9.57t-12.9,2h-7.54v81.42q0,9.12-4.34,13.91a14.43,14.43,0,0,1-11.2,4.79,14.05,14.05,0,0,1-10.87-4.79q-4.33-4.79-4.34-13.91V983.17h-8.45q-6.87,0-10.58-3.1a10,10,0,0,1-3.72-8.05Q319.44,961,334.87,961Z"/><path class="cls-1" d="M526.22,1020.78a72.7,72.7,0,0,1-4.28,25.34,56.23,56.23,0,0,1-12.39,19.94,54.8,54.8,0,0,1-19.37,12.78,68.43,68.43,0,0,1-25.34,4.45,66.42,66.42,0,0,1-25.12-4.51,55.42,55.42,0,0,1-31.7-32.71,72.38,72.38,0,0,1-4.22-25.29,73.2,73.2,0,0,1,4.28-25.56,55.6,55.6,0,0,1,12.27-19.82,54.07,54.07,0,0,1,19.37-12.67,73.36,73.36,0,0,1,50.46,0A54.5,54.5,0,0,1,522,995.44,72.87,72.87,0,0,1,526.22,1020.78Zm-30.86,0q0-18.79-8.28-29.28T464.84,981A27.59,27.59,0,0,0,449,985.7q-6.87,4.68-10.59,13.8a62.57,62.57,0,0,0-.06,42.34,30.15,30.15,0,0,0,10.48,13.8,27.21,27.21,0,0,0,16,4.79q13.95,0,22.24-10.53T495.36,1020.78Z"/><path class="cls-1" d="M552.12,961h3.38V942.51q0-7.43.39-11.66a17.36,17.36,0,0,1,2.2-7.26,13.84,13.84,0,0,1,5.18-5.12,14.63,14.63,0,0,1,7.54-2,15.17,15.17,0,0,1,10.59,4.39,13,13,0,0,1,4,7.15,65.23,65.23,0,0,1,.84,12v21h11.27q6.53,0,10,3.1a10.2,10.2,0,0,1,3.44,7.94q0,6.19-4.9,8.67t-14,2.48h-5.75v56.53a91.24,91.24,0,0,0,.51,11.1,11.3,11.3,0,0,0,2.7,6.3q2.2,2.43,7.15,2.43a38.89,38.89,0,0,0,7.32-1,38,38,0,0,1,7.21-1,9.25,9.25,0,0,1,6.7,3,10,10,0,0,1,3,7.37q0,7.44-8.11,11.38t-23.31,3.94q-14.43,0-21.85-4.84a22.43,22.43,0,0,1-9.74-13.41q-2.31-8.55-2.31-22.86v-59h-4.06q-6.65,0-10.13-3.16a10.28,10.28,0,0,1-3.49-8,9.92,9.92,0,0,1,3.66-7.94Q545.13,961,552.12,961Z"/><path class="cls-1" d="M717.9,1028.33H657.76A40.77,40.77,0,0,0,662,1046.8a28.26,28.26,0,0,0,26,16.1,37,37,0,0,0,10.08-1.29,32.39,32.39,0,0,0,8.84-4.06,67.86,67.86,0,0,0,7.89-5.91q3.6-3.15,9.34-8.56,2.37-2,6.76-2a11.14,11.14,0,0,1,7.66,2.59,9.25,9.25,0,0,1,2.93,7.32q0,4.15-3.27,9.74a38.86,38.86,0,0,1-9.85,10.7,56,56,0,0,1-16.56,8.5,71.38,71.38,0,0,1-22.92,3.38q-29.62,0-46.06-16.89t-16.44-45.84a76.64,76.64,0,0,1,4-25.29,55.76,55.76,0,0,1,11.83-20,51.39,51.39,0,0,1,19.14-12.78,68.87,68.87,0,0,1,25.23-4.45q18,0,30.91,7.6a50,50,0,0,1,19.32,19.66,51.64,51.64,0,0,1,6.42,24.55q0,11.6-6.65,15T717.9,1028.33Zm-60.14-17.46h55.75q-1.12-15.76-8.51-23.59t-19.42-7.83q-11.49,0-18.87,7.94T657.76,1010.87Z"/><path class="cls-1" d="M879.4,1045.22A26.41,26.41,0,0,1,876,1057.5a42.22,42.22,0,0,1-10.47,12.44,54.22,54.22,0,0,1-17.74,9.52,75.29,75.29,0,0,1-24.1,3.6q-28.49,0-44.49-16.61t-16-44.54q0-18.92,7.32-33.45A52.67,52.67,0,0,1,791.67,966q13.85-7.93,33.11-7.94a66,66,0,0,1,21.9,3.49,57.48,57.48,0,0,1,16.9,9,43.4,43.4,0,0,1,10.58,11.77q3.66,6.25,3.66,11.66a12.29,12.29,0,0,1-4.11,9.35,14.1,14.1,0,0,1-10,3.83,10.07,10.07,0,0,1-6.36-2,31.33,31.33,0,0,1-5.69-6.37q-5.62-8.55-11.77-12.84t-15.59-4.28a26.52,26.52,0,0,0-22,10.65Q794,1003,794,1021.46a56.53,56.53,0,0,0,2.14,15.94,36.09,36.09,0,0,0,6.2,12.38,26.37,26.37,0,0,0,9.79,7.77,29.72,29.72,0,0,0,12.62,2.65,28.35,28.35,0,0,0,15.82-4.28q6.58-4.28,11.66-13.06a29.89,29.89,0,0,1,6.08-8.11,11.55,11.55,0,0,1,8-2.93,11.87,11.87,0,0,1,9.35,4.28A13.71,13.71,0,0,1,879.4,1045.22Z"/><path class="cls-1" d="M930.53,931.25v45.61A65.72,65.72,0,0,1,942,966.16a41.08,41.08,0,0,1,12.33-5.91,51.86,51.86,0,0,1,14.53-2,42.65,42.65,0,0,1,20.78,5A38.48,38.48,0,0,1,1008.24,990a97.48,97.48,0,0,1,1.12,15.71v58.9q0,9.24-4.22,14a14.29,14.29,0,0,1-11.2,4.73q-15.21,0-15.21-18.7v-51.92q0-14.74-4.39-22.69T957.67,982a25,25,0,0,0-14.81,4.68A28.09,28.09,0,0,0,933,999.5q-2.47,6.87-2.48,24.44v40.65q0,9.12-4.11,13.91T915,1083.29q-15.21,0-15.21-18.7V931.25q0-9.35,4-14T915,912.55q7.32,0,11.43,4.73T930.53,931.25Z"/><circle class="cls-1" cx="145.11" cy="880.93" r="24.52"/></svg>