<svg xmlns="http://www.w3.org/2000/svg" viewBox="100 -20 820 820">
  <defs><style>.cls-1 { fill: #ffffff; } .cls-2 { fill: #7b58a5; }</style></defs>
  <path class="cls-1" d="M769.77,352.42c-28.65-42.3-96.85-61.31-139-97.33,30.94,50.82,60.87,102.37,88.57,155,26.87,51,4.4,115.8-46.51,143.36-49.7,26.9-106.34,8.87-136.91-44C485,421.43,432.9,334,384.45,244.59c-12.79-23.59-23.32-55.3-18.37-80,4.64-23.07,15.56-44.88,27.47-67.65a26.64,26.64,0,0,0-23.37-39L141.73,56a26.64,26.64,0,0,0-23.3,40c141,244.15,281.67,487.88,424.49,735.26a26.66,26.66,0,0,0,46.16,0C654.31,718.43,717.85,608.76,780.8,499.49,780.9,499.08,804.13,403.14,769.77,352.42Z"/>
  <path class="cls-2" d="M792.48,479.22s21.06-87.27-11.28-135C748.42,295.8,660.5,279.89,628.84,228c-28.05-46-23.32-89.55-6.64-115.52C651.36,67.08,692.33,50,744.62,50.58c81,.89,162.12.5,246.5.35a27.83,27.83,0,0,1,24.15,41.74c-19.52,33.84-38,65.86-58,100.39-1.6,2.77-4.39,4.69-8,6.1-18.84,7.34-38.55-8.67-36.82-28.81,2.1-24.49-4.28-45.26-22.2-63.76-27.22-28.09-70.59-32.29-100.41-10-29,21.7-36.25,57.67-17.3,93,15.86,29.57,33.5,58.17,50,87.41,28.05,49.81,28.55,100.24.13,149.72"/>
  <circle class="cls-1" cx="835.95" cy="155.13" r="47.38"/>
</svg>
